<svg xmlns="http://www.w3.org/2000/svg" xmlns:xlink="http://www.w3.org/1999/xlink" version="1.1" x="0px" y="0px" viewBox="0 0 48 60" style="enable-background:new 0 0 48 48;" xml:space="preserve"><path d="M38,10h-3V4c0-0.31-0.15-0.61-0.4-0.8c-0.25-0.19-0.58-0.25-0.88-0.16l-24,7c-0.02,0.01-0.03,0.02-0.05,0.03  c-0.07,0.02-0.12,0.06-0.18,0.1c-0.05,0.03-0.11,0.06-0.15,0.1c-0.05,0.04-0.08,0.09-0.12,0.15c-0.04,0.05-0.08,0.1-0.11,0.16  c-0.03,0.06-0.04,0.11-0.06,0.17c-0.02,0.07-0.04,0.13-0.04,0.2C9.01,10.96,9,10.98,9,11v33c0,0.55,0.45,1,1,1h28c0.55,0,1-0.45,1-1  V11C39,10.45,38.55,10,38,10z M33,5.33V10H17L33,5.33z M37,43H11V12h26V43z"/><path d="M17,31h1h12h1c0.55,0,1-0.45,1-1s-0.45-1-1-1h-0.08c-0.44-3.06-2.86-5.48-5.92-5.92V22c0-0.55-0.45-1-1-1s-1,0.45-1,1v1.08  c-3.06,0.44-5.48,2.86-5.92,5.92H17c-0.55,0-1,0.45-1,1S16.45,31,17,31z M24,25c2.42,0,4.43,1.72,4.9,4h-9.8  C19.57,26.72,21.58,25,24,25z"/><text x="0" y="63" fill="#000000" font-size="5px" font-weight="bold" font-family="'Helvetica Neue', Helvetica, Arial-Unicode, Arial, Sans-serif">Created by fix project</text><text x="0" y="68" fill="#000000" font-size="5px" font-weight="bold" font-family="'Helvetica Neue', Helvetica, Arial-Unicode, Arial, Sans-serif">from the Noun Project</text></svg>